<?xml version="1.0" encoding="UTF-8" standalone="no"?>

<svg xmlns="http://www.w3.org/2000/svg" xmlns:xlink="http://www.w3.org/1999/xlink" class="card" face="JC" height="3.5in" preserveAspectRatio="none" viewBox="-120 -168 240 336" width="2.5in">
<defs>
</defs>
<style>
	text {
		font : 25px Georgia;
		fill : red;
	}
</style>
<symbol id="VCJ" viewBox="-500 -500 1000 2000" preserveAspectRatio="xMinYMid">
<path d="M50 -460L250 -460M150 -460L150 250A100 100 0 0 1 -250 250L-250 220" stroke="black" stroke-width="80" stroke-linecap="square" stroke-miterlimit="1.5" fill="none">
</path>
</symbol>
<symbol id="JTR" viewBox="0 0 15000 15000" preserveAspectRatio="xMinYMid">
<path d="M8945 8074 c-483 -52 -872 -193 -1244 -452 -634 -440 -1090 -1179
-1295 -2098 -20 -88 -41 -194 -48 -236 -6 -43 -13 -76 -15 -75 -1 2 -12 57
-23 123 -168 991 -706 1787 -1443 2134 -740 348 -1623 231 -2507 -332 -154
-99 -425 -302 -585 -439 -130 -112 -480 -457 -616 -607 l-84 -93 -90 45 c-390
196 -831 -7 -966 -444 -19 -61 -24 -98 -24 -200 0 -146 16 -216 75 -335 74
-152 176 -253 325 -326 189 -92 388 -90 584 7 165 81 293 232 357 419 25 72
28 94 28 225 1 125 -2 155 -22 219 -19 60 -21 76 -10 82 28 18 288 98 398 123
119 26 301 50 340 44 19 -3 16 -9 -35 -73 -100 -124 -248 -356 -332 -520 -282
-554 -438 -1147 -509 -1940 -13 -143 -18 -298 -18 -632 l-1 -442 -70 -17
c-218 -54 -425 -233 -514 -447 -90 -218 -79 -478 29 -687 161 -308 512 -472
836 -390 261 66 461 253 550 515 23 67 28 102 32 215 4 116 1 148 -17 220 -52
209 -165 367 -340 482 -41 27 -77 51 -79 52 -1 2 23 79 54 172 189 567 417
990 636 1177 367 314 762 159 1177 -463 101 -150 218 -352 291 -501 l43 -85
-55 -55 c-89 -89 -98 -160 -44 -328 73 -224 101 -434 93 -691 -6 -205 -29
-352 -83 -525 -59 -189 -55 -267 19 -352 39 -44 62 -56 247 -120 598 -209
1196 -343 1785 -400 223 -21 820 -24 1025 -5 542 51 973 133 1500 283 216 62
533 165 580 189 72 37 129 128 130 207 0 22 -7 100 -15 171 -34 295 -37 852
-5 1167 24 245 24 267 1 320 -27 61 -70 107 -121 130 l-38 17 38 112 c347
1004 961 1432 1597 1113 307 -154 627 -490 901 -946 l51 -84 -24 -29 c-39 -46
-93 -149 -120 -228 -71 -208 -53 -430 52 -633 38 -74 65 -109 138 -182 152
-152 288 -213 495 -222 96 -5 130 -2 200 16 294 73 521 317 576 621 51 283
-62 590 -284 766 -97 77 -282 154 -373 154 -13 0 -29 4 -35 8 -7 4 -21 72 -33
152 -161 1086 -541 1929 -1136 2525 -233 234 -457 396 -750 542 l-170 84 155
-4 c232 -6 436 -57 717 -177 180 -78 544 -276 643 -350 l23 -18 -21 -53 c-59
-147 -68 -348 -22 -494 135 -429 589 -628 973 -428 85 45 224 178 274 263 90
154 123 352 87 528 -31 152 -91 266 -196 373 -187 189 -450 251 -700 164 -40
-14 -77 -26 -81 -27 -5 -2 -21 31 -36 72 -79 211 -205 457 -342 665 -462 703
-1149 1155 -1934 1271 -97 14 -470 26 -550 18z" fill="red">
</path>
</symbol>
<rect width="239" height="335" x="-119.5" y="-167.5" rx="12" ry="12" fill="white" stroke="black">
</rect>
<text	 x="-103" y="-125">J</text> 
<text x="-105" y="-100">O</text> 
<text x="-105" y="-75">K</text> 
<text x="-105" y="-50">E</text> 
<text x="-105" y="-25">R</text>  
<g transform="rotate(180)">
<text x="-103" y="-125">J</text> 
<text x="-105" y="-100">O</text> 
<text x="-105" y="-75">K</text> 
<text x="-105" y="-50">E</text> 
<text x="-105" y="-25">R</text>  
<use xlink:href="#JTR" height="100" x="-40" y="-20">
</use>
</g>
</svg>
